<svg id="Layer_1" data-name="Layer 1" xmlns="http://www.w3.org/2000/svg" xmlns:xlink="http://www.w3.org/1999/xlink" viewBox="0 0 720.18 496.26"><defs><style>.cls-1,.cls-16,.cls-2,.cls-22,.cls-27,.cls-3,.cls-33,.cls-5,.cls-50,.cls-69,.cls-8{fill:none;}.cls-1{clip-rule:evenodd;}.cls-3{stroke:#000;}.cls-16,.cls-22,.cls-27,.cls-3,.cls-33,.cls-5,.cls-50,.cls-69,.cls-8{stroke-linecap:round;stroke-miterlimit:10;stroke-width:0.96px;}.cls-32,.cls-38,.cls-4,.cls-53,.cls-6,.cls-7,.cls-74,.cls-82,.cls-86,.cls-9{fill-rule:evenodd;}.cls-5{stroke:#545454;}.cls-6{fill:#545454;}.cls-14,.cls-7{fill:#918787;}.cls-8{stroke:#918787;}.cls-9{fill:#cafdfd;}.cls-10{clip-path:url(#clip-path);}.cls-11{clip-path:url(#clip-path-2);}.cls-12{font-size:10.98px;font-family:Arial;}.cls-13{clip-path:url(#clip-path-3);}.cls-15,.cls-38{fill:#ffe6e4;}.cls-16{stroke:#d691ac;}.cls-17{clip-path:url(#clip-path-5);}.cls-18{white-space:pre;}.cls-19{clip-path:url(#clip-path-7);}.cls-20{letter-spacing:-1px;}.cls-21,.cls-53{fill:#fffdd0;}.cls-22{stroke:#c79d69;}.cls-23{clip-path:url(#clip-path-9);}.cls-24{clip-path:url(#clip-path-11);}.cls-25{clip-path:url(#clip-path-13);}.cls-26,.cls-74{fill:#dff6d1;}.cls-27{stroke:#37ca29;}.cls-28{clip-path:url(#clip-path-14);}.cls-29{clip-path:url(#clip-path-16);}.cls-30{clip-path:url(#clip-path-18);}.cls-31{clip-path:url(#clip-path-20);}.cls-32,.cls-42{fill:#ffefd6;}.cls-33{stroke:#9a672f;}.cls-34{clip-path:url(#clip-path-22);}.cls-35{clip-path:url(#clip-path-24);}.cls-36{clip-path:url(#clip-path-26);}.cls-37{clip-path:url(#clip-path-28);}.cls-39{clip-path:url(#clip-path-30);}.cls-40{clip-path:url(#clip-path-32);}.cls-41{clip-path:url(#clip-path-34);}.cls-43{clip-path:url(#clip-path-36);}.cls-44{clip-path:url(#clip-path-38);}.cls-45{clip-path:url(#clip-path-40);}.cls-46{clip-path:url(#clip-path-42);}.cls-47{clip-path:url(#clip-path-44);}.cls-48{clip-path:url(#clip-path-46);}.cls-49,.cls-86{fill:#f3e9ff;}.cls-50{stroke:#824cc5;}.cls-51{clip-path:url(#clip-path-48);}.cls-52{clip-path:url(#clip-path-50);}.cls-54{clip-path:url(#clip-path-52);}.cls-55{clip-path:url(#clip-path-54);}.cls-56{clip-path:url(#clip-path-56);}.cls-57{clip-path:url(#clip-path-58);}.cls-58{clip-path:url(#clip-path-60);}.cls-59{clip-path:url(#clip-path-62);}.cls-60{clip-path:url(#clip-path-64);}.cls-61{clip-path:url(#clip-path-66);}.cls-62{clip-path:url(#clip-path-68);}.cls-63{clip-path:url(#clip-path-70);}.cls-64{clip-path:url(#clip-path-72);}.cls-65{clip-path:url(#clip-path-74);}.cls-66{clip-path:url(#clip-path-76);}.cls-67{clip-path:url(#clip-path-78);}.cls-68,.cls-82{fill:#beddfe;}.cls-69{stroke:#6ca4e3;}.cls-70{clip-path:url(#clip-path-80);}.cls-71{clip-path:url(#clip-path-82);}.cls-72{clip-path:url(#clip-path-84);}.cls-73{clip-path:url(#clip-path-86);}.cls-75{clip-path:url(#clip-path-88);}.cls-76{clip-path:url(#clip-path-90);}.cls-77{clip-path:url(#clip-path-92);}.cls-78{clip-path:url(#clip-path-94);}.cls-79{clip-path:url(#clip-path-96);}.cls-80{clip-path:url(#clip-path-98);}.cls-81{clip-path:url(#clip-path-100);}.cls-83{clip-path:url(#clip-path-102);}.cls-84{clip-path:url(#clip-path-104);}.cls-85{clip-path:url(#clip-path-106);}.cls-87{clip-path:url(#clip-path-108);}.cls-88{clip-path:url(#clip-path-110);}.cls-89{clip-path:url(#clip-path-112);}.cls-90{clip-path:url(#clip-path-114);}.cls-91{clip-path:url(#clip-path-116);}.cls-92{clip-path:url(#clip-path-118);}.cls-93{clip-path:url(#clip-path-120);}.cls-94{clip-path:url(#clip-path-122);}</style><clipPath id="clip-path" transform="translate(0.36 -21.6)"><polyline class="cls-1" points="301.26 34.5 301.26 46.8 386.7 46.8 386.7 40.68 389.76 40.68 389.76 34.5"/></clipPath><clipPath id="clip-path-2" transform="translate(0.36 -21.6)"><rect class="cls-2" x="-35.97" y="-36" width="792" height="612"/></clipPath><clipPath id="clip-path-3" transform="translate(0.36 -21.6)"><polyline class="cls-1" points="314.04 48.18 314.04 60.48 372 60.48 372 54.36 375.06 54.36 375.06 48.18"/></clipPath><clipPath id="clip-path-5" transform="translate(0.36 -21.6)"><polyline class="cls-1" points="4.2 130.44 4.2 142.74 88.44 142.74 88.44 136.62 91.5 136.62 91.5 130.44"/></clipPath><clipPath id="clip-path-7" transform="translate(0.36 -21.6)"><polyline class="cls-1" points="7.86 144.18 7.86 156.48 81.72 156.48 81.72 150.36 84.78 150.36 84.78 144.18"/></clipPath><clipPath id="clip-path-9" transform="translate(0.36 -21.6)"><polyline class="cls-1" points="404.58 132.24 404.58 144.54 457.68 144.54 457.68 138.42 460.74 138.42 460.74 132.24"/></clipPath><clipPath id="clip-path-11" transform="translate(0.36 -21.6)"><polyline class="cls-1" points="405.48 145.98 405.48 158.28 454.26 158.28 454.26 152.16 457.32 152.16 457.32 145.98"/></clipPath><clipPath id="clip-path-13" transform="translate(0.36 -21.6)"><rect class="cls-2" width="720" height="540"/></clipPath><clipPath id="clip-path-14" transform="translate(0.36 -21.6)"><polyline class="cls-1" points="28.92 306.84 28.92 319.14 49.08 319.14 49.08 313.02 52.14 313.02 52.14 306.84"/></clipPath><clipPath id="clip-path-16" transform="translate(0.36 -21.6)"><polyline class="cls-1" points="9.72 320.58 9.72 332.88 64.62 332.88 64.62 326.76 67.68 326.76 67.68 320.58"/></clipPath><clipPath id="clip-path-18" transform="translate(0.36 -21.6)"><polyline class="cls-1" points="47.16 184.32 47.16 196.62 102.06 196.62 102.06 190.5 105.12 190.5 105.12 184.32"/></clipPath><clipPath id="clip-path-20" transform="translate(0.36 -21.6)"><polyline class="cls-1" points="52.68 198.06 52.68 210.36 93.54 210.36 93.54 204.24 96.6 204.24 96.6 198.06"/></clipPath><clipPath id="clip-path-22" transform="translate(0.36 -21.6)"><polyline class="cls-1" points="535.26 251.04 535.26 263.34 598.74 263.34 598.74 257.22 601.8 257.22 601.8 251.04"/></clipPath><clipPath id="clip-path-24" transform="translate(0.36 -21.6)"><polyline class="cls-1" points="538.02 264.78 538.02 277.08 593.58 277.08 593.58 270.96 596.64 270.96 596.64 264.78"/></clipPath><clipPath id="clip-path-26" transform="translate(0.36 -21.6)"><polyline class="cls-1" points="452.04 183.42 452.04 195.72 516.72 195.72 516.72 189.6 519.78 189.6 519.78 183.42"/></clipPath><clipPath id="clip-path-28" transform="translate(0.36 -21.6)"><polyline class="cls-1" points="472.14 197.16 472.14 209.46 493.5 209.46 493.5 203.34 496.56 203.34 496.56 197.16"/></clipPath><clipPath id="clip-path-30" transform="translate(0.36 -21.6)"><polyline class="cls-1" points="140.4 102.12 140.4 114.42 179.46 114.42 179.46 108.3 182.52 108.3 182.52 102.12"/></clipPath><clipPath id="clip-path-32" transform="translate(0.36 -21.6)"><polyline class="cls-1" points="128.52 195.3 128.52 207.6 187.08 207.6 187.08 201.48 190.14 201.48 190.14 195.3"/></clipPath><clipPath id="clip-path-34" transform="translate(0.36 -21.6)"><polyline class="cls-1" points="136.74 209.04 136.74 221.34 176.4 221.34 176.4 215.22 179.46 215.22 179.46 209.04"/></clipPath><clipPath id="clip-path-36" transform="translate(0.36 -21.6)"><polyline class="cls-1" points="460.26 321.42 460.26 333.72 507.84 333.72 507.84 327.6 510.9 327.6 510.9 321.42"/></clipPath><clipPath id="clip-path-38" transform="translate(0.36 -21.6)"><polyline class="cls-1" points="466.68 335.16 466.68 347.46 499.02 347.46 499.02 341.34 502.08 341.34 502.08 335.16"/></clipPath><clipPath id="clip-path-40" transform="translate(0.36 -21.6)"><polyline class="cls-1" points="505.98 374.46 505.98 386.76 548.7 386.76 548.7 380.64 551.76 380.64 551.76 374.46"/></clipPath><clipPath id="clip-path-42" transform="translate(0.36 -21.6)"><polyline class="cls-1" points="501.42 388.2 501.42 400.5 549.6 400.5 549.6 394.38 552.66 394.38 552.66 388.2"/></clipPath><clipPath id="clip-path-44" transform="translate(0.36 -21.6)"><polyline class="cls-1" points="423.78 268.44 423.78 280.74 477.48 280.74 477.48 274.62 480.54 274.62 480.54 268.44"/></clipPath><clipPath id="clip-path-46" transform="translate(0.36 -21.6)"><polyline class="cls-1" points="432.9 282.18 432.9 294.48 465.24 294.48 465.24 288.36 468.3 288.36 468.3 282.18"/></clipPath><clipPath id="clip-path-48" transform="translate(0.36 -21.6)"><polyline class="cls-1" points="219 431.16 219 443.46 270.9 443.46 270.9 437.34 273.96 437.34 273.96 431.16"/></clipPath><clipPath id="clip-path-50" transform="translate(0.36 -21.6)"><polyline class="cls-1" points="204.36 444.84 204.36 457.14 282.12 457.14 282.12 451.02 285.18 451.02 285.18 444.84"/></clipPath><clipPath id="clip-path-52" transform="translate(0.36 -21.6)"><polyline class="cls-1" points="505.98 101.16 505.98 113.46 554.82 113.46 554.82 107.34 557.88 107.34 557.88 101.16"/></clipPath><clipPath id="clip-path-54" transform="translate(0.36 -21.6)"><polyline class="cls-1" points="601.98 135.9 601.98 148.2 656.28 148.2 656.28 142.08 659.34 142.08 659.34 135.9"/></clipPath><clipPath id="clip-path-56" transform="translate(0.36 -21.6)"><polyline class="cls-1" points="608.4 149.64 608.4 161.94 647.46 161.94 647.46 155.82 650.52 155.82 650.52 149.64"/></clipPath><clipPath id="clip-path-58" transform="translate(0.36 -21.6)"><polyline class="cls-1" points="234.54 129.54 234.54 141.84 306.54 141.84 306.54 135.72 309.6 135.72 309.6 129.54"/></clipPath><clipPath id="clip-path-60" transform="translate(0.36 -21.6)"><polyline class="cls-1" points="236.4 143.22 236.4 155.52 304.14 155.52 304.14 149.4 307.2 149.4 307.2 143.22"/></clipPath><clipPath id="clip-path-62" transform="translate(0.36 -21.6)"><polyline class="cls-1" points="253.74 156.96 253.74 169.26 283.02 169.26 283.02 163.14 286.08 163.14 286.08 156.96"/></clipPath><clipPath id="clip-path-64" transform="translate(0.36 -21.6)"><polyline class="cls-1" points="206.22 189.84 206.22 202.14 277.02 202.14 277.02 196.02 280.08 196.02 280.08 189.84"/></clipPath><clipPath id="clip-path-66" transform="translate(0.36 -21.6)"><polyline class="cls-1" points="207.12 203.58 207.12 215.88 274.26 215.88 274.26 209.76 277.32 209.76 277.32 203.58"/></clipPath><clipPath id="clip-path-68" transform="translate(0.36 -21.6)"><polyline class="cls-1" points="537.96 180.72 537.96 193.02 619.74 193.02 619.74 186.9 622.8 186.9 622.8 180.72"/></clipPath><clipPath id="clip-path-70" transform="translate(0.36 -21.6)"><polyline class="cls-1" points="557.16 194.46 557.16 206.76 596.22 206.76 596.22 200.64 599.28 200.64 599.28 194.46"/></clipPath><clipPath id="clip-path-72" transform="translate(0.36 -21.6)"><polyline class="cls-1" points="593.76 376.26 593.76 388.56 641.94 388.56 641.94 382.44 645 382.44 645 376.26"/></clipPath><clipPath id="clip-path-74" transform="translate(0.36 -21.6)"><polyline class="cls-1" points="591.9 390 591.9 402.3 638.28 402.3 638.28 396.18 641.34 396.18 641.34 390"/></clipPath><clipPath id="clip-path-76" transform="translate(0.36 -21.6)"><polyline class="cls-1" points="631.26 325.08 631.26 337.38 684.36 337.38 684.36 331.26 687.42 331.26 687.42 325.08"/></clipPath><clipPath id="clip-path-78" transform="translate(0.36 -21.6)"><polyline class="cls-1" points="634.92 338.82 634.92 351.12 678.24 351.12 678.24 345 681.3 345 681.3 338.82"/></clipPath><clipPath id="clip-path-80" transform="translate(0.36 -21.6)"><polyline class="cls-1" points="250.98 325.08 250.98 337.38 314.46 337.38 314.46 331.26 317.52 331.26 317.52 325.08"/></clipPath><clipPath id="clip-path-82" transform="translate(0.36 -21.6)"><polyline class="cls-1" points="254.64 338.82 254.64 351.12 308.94 351.12 308.94 345 312 345 312 338.82"/></clipPath><clipPath id="clip-path-84" transform="translate(0.36 -21.6)"><polyline class="cls-1" points="43.5 365.34 43.5 377.64 98.4 377.64 98.4 371.52 101.46 371.52 101.46 365.34"/></clipPath><clipPath id="clip-path-86" transform="translate(0.36 -21.6)"><polyline class="cls-1" points="44.46 379.08 44.46 391.38 93.9 391.38 93.9 385.26 96.96 385.26 96.96 379.08"/></clipPath><clipPath id="clip-path-88" transform="translate(0.36 -21.6)"><polyline class="cls-1" points="83.7 261.12 83.7 273.42 136.8 273.42 136.8 267.3 139.86 267.3 139.86 261.12"/></clipPath><clipPath id="clip-path-90" transform="translate(0.36 -21.6)"><polyline class="cls-1" points="660.48 268.44 660.48 280.74 701.34 280.74 701.34 274.62 704.4 274.62 704.4 268.44"/></clipPath><clipPath id="clip-path-92" transform="translate(0.36 -21.6)"><polyline class="cls-1" points="656.82 282.18 656.82 294.48 702 294.48 702 288.36 705.06 288.36 705.06 282.18"/></clipPath><clipPath id="clip-path-94" transform="translate(0.36 -21.6)"><polyline class="cls-1" points="343.32 323.28 343.32 335.58 391.56 335.58 391.56 329.46 394.62 329.46 394.62 323.28"/></clipPath><clipPath id="clip-path-96" transform="translate(0.36 -21.6)"><polyline class="cls-1" points="339.66 337.02 339.66 349.32 392.16 349.32 392.16 343.2 395.22 343.2 395.22 337.02"/></clipPath><clipPath id="clip-path-98" transform="translate(0.36 -21.6)"><polyline class="cls-1" points="148.62 309.54 148.62 321.84 220.02 321.84 220.02 315.72 223.08 315.72 223.08 309.54"/></clipPath><clipPath id="clip-path-100" transform="translate(0.36 -21.6)"><polyline class="cls-1" points="165.06 323.28 165.06 335.58 196.2 335.58 196.2 329.46 199.26 329.46 199.26 323.28"/></clipPath><clipPath id="clip-path-102" transform="translate(0.36 -21.6)"><polyline class="cls-1" points="315.9 261.12 315.9 273.42 343.98 273.42 343.98 267.3 347.04 267.3 347.04 261.12"/></clipPath><clipPath id="clip-path-104" transform="translate(0.36 -21.6)"><polyline class="cls-1" points="412.74 434.76 412.74 447.06 475.62 447.06 475.62 440.94 478.68 440.94 478.68 434.76"/></clipPath><clipPath id="clip-path-106" transform="translate(0.36 -21.6)"><polyline class="cls-1" points="428.28 448.5 428.28 460.8 455.7 460.8 455.7 454.68 458.76 454.68 458.76 448.5"/></clipPath><clipPath id="clip-path-108" transform="translate(0.36 -21.6)"><polyline class="cls-1" points="333.24 402.84 333.24 415.14 363.18 415.14 363.18 409.02 366.24 409.02 366.24 402.84"/></clipPath><clipPath id="clip-path-110" transform="translate(0.36 -21.6)"><polyline class="cls-1" points="328.68 416.52 328.68 428.82 364.08 428.82 364.08 422.7 367.14 422.7 367.14 416.52"/></clipPath><clipPath id="clip-path-112" transform="translate(0.36 -21.6)"><polyline class="cls-1" points="268.32 478.62 268.32 490.92 337.92 490.92 337.92 484.8 340.98 484.8 340.98 478.62"/></clipPath><clipPath id="clip-path-114" transform="translate(0.36 -21.6)"><polyline class="cls-1" points="272.94 492.36 272.94 504.66 330.3 504.66 330.3 498.54 333.36 498.54 333.36 492.36"/></clipPath><clipPath id="clip-path-116" transform="translate(0.36 -21.6)"><polyline class="cls-1" points="357.96 481.38 357.96 493.68 416.58 493.68 416.58 487.56 419.64 487.56 419.64 481.38"/></clipPath><clipPath id="clip-path-118" transform="translate(0.36 -21.6)"><polyline class="cls-1" points="362.52 495.12 362.52 507.42 409.5 507.42 409.5 501.3 412.56 501.3 412.56 495.12"/></clipPath><clipPath id="clip-path-120" transform="translate(0.36 -21.6)"><polyline class="cls-1" points="120.3 364.38 120.3 376.68 191.7 376.68 191.7 370.56 194.76 370.56 194.76 364.38"/></clipPath><clipPath id="clip-path-122" transform="translate(0.36 -21.6)"><polyline class="cls-1" points="140.4 378.12 140.4 390.42 168.48 390.42 168.48 384.3 171.54 384.3 171.54 378.12"/></clipPath></defs><title>User Needs</title><line class="cls-3" x1="547.08" y1="261.84" x2="516.9" y2="287.46"/><polyline class="cls-4" points="507.3 294.3 520.08 289.8 517.26 286.26 514.38 282.72 507.3 294.3"/><line class="cls-3" x1="560.76" y1="263.7" x2="537" y2="336.84"/><polyline class="cls-4" points="532.86 347.28 541.38 336.72 537 335.22 532.68 333.72 532.86 347.28"/><line class="cls-3" x1="527.88" y1="253.62" x2="499.5" y2="252.72"/><polyline class="cls-4" points="487.14 251.34 499.8 256.32 499.98 251.76 500.1 247.2 487.14 251.34"/><line class="cls-3" x1="129.36" y1="98.28" x2="101.94" y2="106.5"/><polyline class="cls-4" points="89.58 108.72 103.14 109.86 100.74 100.98 89.58 108.72"/><line class="cls-3" x1="160.44" y1="106.5" x2="158.58" y2="156.78"/><polyline class="cls-4" points="158.1 168.18 163.08 155.52 158.52 155.34 153.9 155.16 158.1 168.18"/><line class="cls-3" x1="144.9" y1="104.64" x2="101.94" y2="149.46"/><polyline class="cls-4" points="93.24 157.2 105.42 151.2 98.82 144.84 93.24 157.2"/><line class="cls-3" x1="502.26" y1="98.28" x2="478.5" y2="107.4"/><polyline class="cls-4" points="467.04 111.48 480.66 111.12 477.42 102.6 467.04 111.48"/><line class="cls-3" x1="522.36" y1="104.64" x2="500.46" y2="145.8"/><polyline class="cls-4" points="494.46 156.3 504.54 147.12 496.38 142.8 494.46 156.3"/><line class="cls-3" x1="558.96" y1="99.18" x2="579.96" y2="108.3"/><polyline class="cls-4" points="590.46 112.38 580.68 102.96 578.76 107.16 576.9 111.36 590.46 112.38"/><line class="cls-3" x1="190.62" y1="98.28" x2="211.62" y2="105.6"/><polyline class="cls-4" points="222.12 109.68 211.8 100.86 208.56 109.38 222.12 109.68"/><line class="cls-3" x1="91.86" y1="262.8" x2="75.42" y2="273.72"/><polyline class="cls-4" points="64.92 279.66 78.12 276.54 75.66 272.7 73.14 268.86 64.92 279.66"/><line class="cls-3" x1="105.6" y1="264.6" x2="82.74" y2="327.66"/><polyline class="cls-4" points="77.7 338.16 86.52 327.84 78 324.6 77.7 338.16"/><line class="cls-3" x1="131.16" y1="261.84" x2="147.66" y2="275.58"/><polyline class="cls-4" points="156.3 282.42 149.46 270.72 143.58 277.68 156.3 282.42"/><line class="cls-3" x1="540.66" y1="104.64" x2="561.66" y2="144.9"/><polyline class="cls-4" points="566.7 154.44 564.96 141 560.88 143.04 556.86 145.14 566.7 154.44"/><line class="cls-3" x1="588.18" y1="260.94" x2="622.92" y2="291.12"/><polyline class="cls-4" points="631.56 297.96 624.84 286.08 621.84 289.56 618.9 292.98 631.56 297.96"/><line class="cls-3" x1="606.48" y1="251.82" x2="630.24" y2="253.62"/><polyline class="cls-4" points="641.64 254.1 629.28 248.46 628.92 252.96 628.5 257.58 641.64 254.1"/><line class="cls-3" x1="175.08" y1="104.64" x2="217.08" y2="154.02"/><polyline class="cls-4" points="223.92 162.66 219.18 149.88 215.64 152.82 212.16 155.76 223.92 162.66"/><line class="cls-3" x1="575.4" y1="263.7" x2="603.72" y2="338.64"/><polyline class="cls-4" points="607.8 349.14 607.68 335.52 603.42 337.08 599.1 338.64 607.8 349.14"/><line class="cls-3" x1="319.5" y1="264.6" x2="303" y2="288.36"/><polyline class="cls-4" points="296.16 297.96 307.2 290.1 303.48 287.46 299.76 284.88 296.16 297.96"/><line class="cls-3" x1="340.5" y1="264.6" x2="351.48" y2="285.66"/><polyline class="cls-4" points="356.46 296.1 354.72 282.66 350.64 284.7 346.62 286.8 356.46 296.1"/><line class="cls-5" x1="336.84" y1="412.68" x2="321.3" y2="441.9"/><polyline class="cls-6" points="315.36 451.5 325.56 442.56 321.54 440.34 317.58 438.12 315.36 451.5"/><line class="cls-5" x1="377.94" y1="405.36" x2="394.44" y2="411.78"/><polyline class="cls-6" points="404.88 414.96 394.5 406.08 392.88 410.34 391.26 414.66 404.88 414.96"/><line class="cls-5" x1="315.84" y1="404.46" x2="299.34" y2="408.12"/><polyline class="cls-6" points="286.98 410.34 300.48 412.2 299.52 407.64 298.56 403.2 286.98 410.34"/><line class="cls-5" x1="356.04" y1="412.68" x2="372.48" y2="443.76"/><polyline class="cls-6" points="377.46 454.26 375.72 440.76 371.64 442.8 367.56 444.9 377.46 454.26"/><line class="cls-5" x1="118.38" y1="264.6" x2="144" y2="326.76"/><polyline class="cls-6" points="148.08 337.26 147.54 323.7 143.28 325.38 139.08 327.12 148.08 337.26"/><path class="cls-7" d="M401.58,24.78a0.6,0.6,0,0,1,.6.6V77.16a0.65,0.65,0,0,1-.6.6H289.5a0.6,0.6,0,0,1-.6-0.6V25.38a0.57,0.57,0,0,1,.6-0.6" transform="translate(0.36 -21.6)"/><path class="cls-8" d="M401.58,24.78a0.6,0.6,0,0,1,.6.6V77.16a0.65,0.65,0,0,1-.6.6H289.5a0.6,0.6,0,0,1-.6-0.6V25.38a0.57,0.57,0,0,1,.6-0.6H401.58Z" transform="translate(0.36 -21.6)"/><path class="cls-9" d="M398.88,22.08a0.6,0.6,0,0,1,.6.6V74.46a0.65,0.65,0,0,1-.6.6H286.8a0.6,0.6,0,0,1-.6-0.6V22.68a0.57,0.57,0,0,1,.6-0.6" transform="translate(0.36 -21.6)"/><path class="cls-5" d="M398.88,22.08a0.6,0.6,0,0,1,.6.6V74.46a0.65,0.65,0,0,1-.6.6H286.8a0.6,0.6,0,0,1-.6-0.6V22.68a0.57,0.57,0,0,1,.6-0.6H398.88Z" transform="translate(0.36 -21.6)"/><g class="cls-10"><g class="cls-11"><text class="cls-12" transform="translate(301.62 22.86)">Verifiable Claims</text></g></g><g class="cls-13"><g class="cls-11"><text class="cls-12" transform="translate(314.4 36.54)">User Needs</text></g></g><rect class="cls-14" x="3.6" y="104.16" width="89.58" height="42.06"/><path class="cls-8" d="M3.72,126.24m0,41.1v-41.1H92.34v41.1H3.72Z" transform="translate(0.36 -21.6)"/><rect class="cls-15" x="0.9" y="101.46" width="89.58" height="42.06"/><path class="cls-16" d="M1,123.54m0,41.1v-41.1H89.64v41.1H1Z" transform="translate(0.36 -21.6)"/><g class="cls-17"><g class="cls-11"><text class="cls-12" transform="translate(4.56 118.8)">F.<tspan x="9.78" y="0">1</tspan><tspan x="15.89" y="0"> </tspan><tspan x="18.95" y="0">Reu</tspan><tspan x="39.09" y="0">s</tspan><tspan x="44.59" y="0">e</tspan><tspan class="cls-18" x="50.7" y="0"> K</tspan><tspan x="61.09" y="0">now</tspan></text></g></g><g class="cls-19"><g class="cls-11"><text class="cls-12" transform="translate(8.22 132.54)"><tspan class="cls-20">Y</tspan><tspan x="6.3" y="0">our</tspan><tspan x="22.17" y="0"> </tspan><tspan x="25" y="0">C</tspan><tspan x="32.92" y="0">ustomer</tspan></text></g></g><rect class="cls-14" x="394.8" y="107.82" width="75.84" height="39.3"/><path class="cls-8" d="M394.92,129.9m0,38.34V129.9H469.8v38.34H394.92Z" transform="translate(0.36 -21.6)"/><rect class="cls-21" x="392.1" y="105.12" width="75.84" height="39.3"/><path class="cls-22" d="M392.22,127.2m0,38.34V127.2H467.1v38.34H392.22Z" transform="translate(0.36 -21.6)"/><g class="cls-23"><g class="cls-11"><text class="cls-12" transform="translate(404.94 120.6)">E<tspan x="7.32" y="0">.</tspan><tspan x="10.39" y="0">1</tspan><tspan x="16.49" y="0"> </tspan><tspan x="19.55" y="0">Digi</tspan><tspan x="38.47" y="0">t</tspan><tspan x="41.53" y="0">al</tspan></text></g></g><g class="cls-24"><g class="cls-11"><text class="cls-12" transform="translate(405.84 134.34)">Transcri<tspan x="39.74" y="0">p</tspan><tspan x="45.8" y="0">t</tspan></text></g></g><rect class="cls-14" x="2.7" y="282.36" width="75.84" height="39.3"/><path class="cls-8" d="M2.82,304.44m0,38.34V304.44H77.7v38.34H2.82Z" transform="translate(0.36 -21.6)"/><g class="cls-25"><rect class="cls-26" x="0.36" y="279.66" width="75.48" height="39.3"/><path class="cls-27" d="M0.12,301.74m0,38.34V301.74H75v38.34H0.12Z" transform="translate(0.36 -21.6)"/></g><g class="cls-28"><g class="cls-11"><text class="cls-12" transform="translate(29.28 295.2)">H.1</text></g></g><g class="cls-29"><g class="cls-11"><text class="cls-12" transform="translate(10.08 308.94)">Prescribin<tspan x="48.92" y="0">g</tspan></text></g></g><rect class="cls-14" x="38.34" y="159.9" width="75.84" height="39.3"/><path class="cls-8" d="M38.46,182m0,38.34V182h74.88v38.34H38.46Z" transform="translate(0.36 -21.6)"/><rect class="cls-15" x="35.64" y="157.2" width="75.84" height="39.3"/><path class="cls-16" d="M35.76,179.28m0,38.34V179.28h74.88v38.34H35.76Z" transform="translate(0.36 -21.6)"/><g class="cls-30"><g class="cls-11"><text class="cls-12" transform="translate(47.52 172.68)">F.2 Money</text></g></g><g class="cls-31"><g class="cls-11"><text class="cls-12" transform="translate(53.04 186.42)">T<tspan x="6.31" y="0">r</tspan><tspan x="9.97" y="0">a</tspan><tspan x="16.09" y="0">n</tspan><tspan x="22.15" y="0">s</tspan><tspan x="27.62" y="0">fe</tspan><tspan x="36.69" y="0">r</tspan></text></g></g><path class="cls-7" d="M612.42,267.9c0,11.1-19.62,20.1-43.86,20.1s-43.86-9-43.86-20.1,19.62-20.1,43.86-20.1,43.86,9,43.86,20.1" transform="translate(0.36 -21.6)"/><path class="cls-8" d="M612.42,267.9c0,11.1-19.62,20.1-43.86,20.1s-43.86-9-43.86-20.1,19.62-20.1,43.86-20.1S612.42,256.8,612.42,267.9Z" transform="translate(0.36 -21.6)"/><path class="cls-32" d="M609.72,265.2c0,11.1-19.62,20.1-43.86,20.1S522,276.3,522,265.2s19.62-20.1,43.86-20.1,43.86,9,43.86,20.1" transform="translate(0.36 -21.6)"/><path class="cls-33" d="M609.72,265.2c0,11.1-19.62,20.1-43.86,20.1S522,276.3,522,265.2s19.62-20.1,43.86-20.1S609.72,254.1,609.72,265.2Z" transform="translate(0.36 -21.6)"/><g class="cls-34"><g class="cls-11"><text class="cls-12" transform="translate(535.62 239.4)">Professiona<tspan x="58.1" y="0">l</tspan></text></g></g><g class="cls-35"><g class="cls-11"><text class="cls-12" transform="translate(538.38 253.14)">C<tspan x="7.93" y="0">r</tspan><tspan x="11.6" y="0">eden</tspan><tspan x="36.02" y="0">t</tspan><tspan x="39.08" y="0">ials</tspan></text></g></g><rect class="cls-14" x="447.84" y="159" width="75.84" height="39.3"/><path class="cls-8" d="M448,181.08m0,38.34V181.08h74.88v38.34H448Z" transform="translate(0.36 -21.6)"/><rect class="cls-21" x="445.14" y="156.3" width="75.84" height="39.3"/><path class="cls-22" d="M445.26,178.38m0,38.34V178.38h74.88v38.34H445.26Z" transform="translate(0.36 -21.6)"/><g class="cls-36"><g class="cls-11"><text class="cls-12" transform="translate(452.4 171.78)">E.2 Taking <tspan x="55.66" y="0">a</tspan></text></g></g><g class="cls-37"><g class="cls-11"><text class="cls-12" transform="translate(472.5 185.52)">Tes<tspan x="18.34" y="0">t</tspan></text></g></g><path class="cls-7" d="M200.16,111.54c0,10.62-16.74,19.2-37.44,19.2s-37.44-8.58-37.44-19.2S142,92.4,162.72,92.4s37.44,8.58,37.44,19.14" transform="translate(0.36 -21.6)"/><path class="cls-8" d="M200.16,111.54c0,10.62-16.74,19.2-37.44,19.2s-37.44-8.58-37.44-19.2S142,92.4,162.72,92.4,200.16,101,200.16,111.54Z" transform="translate(0.36 -21.6)"/><path class="cls-38" d="M197.46,108.84c0,10.62-16.74,19.2-37.44,19.2s-37.44-8.58-37.44-19.2S139.32,89.7,160,89.7s37.44,8.58,37.44,19.14" transform="translate(0.36 -21.6)"/><path class="cls-16" d="M197.46,108.84c0,10.62-16.74,19.2-37.44,19.2s-37.44-8.58-37.44-19.2S139.32,89.7,160,89.7,197.46,98.28,197.46,108.84Z" transform="translate(0.36 -21.6)"/><g class="cls-39"><g class="cls-11"><text class="cls-12" transform="translate(140.76 90.48)">Financ<tspan x="33.02" y="0">e</tspan></text></g></g><rect class="cls-14" x="121.5" y="170.88" width="75.84" height="39.3"/><path class="cls-8" d="M121.62,193m0,38.34V193H196.5V231.3H121.62Z" transform="translate(0.36 -21.6)"/><rect class="cls-15" x="118.8" y="168.18" width="75.84" height="39.3"/><path class="cls-16" d="M118.92,190.26m0,38.34V190.26H193.8V228.6H118.92Z" transform="translate(0.36 -21.6)"/><g class="cls-40"><g class="cls-11"><text class="cls-12" transform="translate(128.88 183.66)">F.3 Closin<tspan x="49.54" y="0">g</tspan></text></g></g><g class="cls-41"><g class="cls-11"><text class="cls-12" transform="translate(137.1 197.4)">Accou<tspan x="30.57" y="0">n</tspan><tspan x="36.63" y="0">t</tspan></text></g></g><rect class="cls-14" x="447.84" y="297" width="75.84" height="39.3"/><path class="cls-8" d="M448,319.08m0,38.34V319.08h74.88v38.34H448Z" transform="translate(0.36 -21.6)"/><rect class="cls-42" x="445.14" y="294.3" width="75.84" height="39.3"/><path class="cls-33" d="M445.26,316.38m0,38.34V316.38h74.88v38.34H445.26Z" transform="translate(0.36 -21.6)"/><g class="cls-43"><g class="cls-11"><text class="cls-12" transform="translate(460.62 309.78)">C<tspan x="7.93" y="0">.</tspan><tspan x="10.99" y="0">2</tspan><tspan class="cls-18" x="17.1" y="0"> B</tspan><tspan x="27.49" y="0">u</tspan><tspan x="33.6" y="0">s</tspan><tspan x="39.1" y="0">y</tspan></text></g></g><g class="cls-44"><g class="cls-11"><text class="cls-12" transform="translate(467.04 323.52)">Docto<tspan x="28.52" y="0">r</tspan></text></g></g><rect class="cls-14" x="490.8" y="349.98" width="75.84" height="39.3"/><path class="cls-8" d="M490.92,372.06m0,38.34V372.06H565.8V410.4H490.92Z" transform="translate(0.36 -21.6)"/><rect class="cls-42" x="488.1" y="347.28" width="75.84" height="39.3"/><path class="cls-33" d="M488.22,369.36m0,38.34V369.36H563.1V407.7H488.22Z" transform="translate(0.36 -21.6)"/><g class="cls-45"><g class="cls-11"><text class="cls-12" transform="translate(506.34 362.82)">C.3 Bad</text></g></g><g class="cls-46"><g class="cls-11"><text class="cls-12" transform="translate(501.78 376.56)">University</text></g></g><rect class="cls-14" x="414" y="243.96" width="75.84" height="39.3"/><path class="cls-8" d="M414.12,266m0,38.34V266H489v38.34H414.12Z" transform="translate(0.36 -21.6)"/><rect class="cls-42" x="411.3" y="241.26" width="75.84" height="39.3"/><path class="cls-33" d="M411.42,263.34m0,38.34V263.34H486.3v38.34H411.42Z" transform="translate(0.36 -21.6)"/><g class="cls-47"><g class="cls-11"><text class="cls-12" transform="translate(424.14 256.8)">C<tspan x="7.93" y="0">.</tspan><tspan x="10.99" y="0">1</tspan><tspan class="cls-18" x="17.1" y="0"> F</tspan><tspan x="26.88" y="0">ind</tspan><tspan x="41.53" y="0"> </tspan><tspan x="44.59" y="0">a</tspan></text></g></g><g class="cls-48"><g class="cls-11"><text class="cls-12" transform="translate(433.26 270.54)">Docto<tspan x="28.52" y="0">r</tspan></text></g></g><rect class="cls-14" x="201.96" y="406.68" width="88.68" height="38.4"/><path class="cls-8" d="M202.08,428.76m0,37.44V428.76H289.8V466.2H202.08Z" transform="translate(0.36 -21.6)"/><rect class="cls-49" x="199.26" y="403.98" width="88.68" height="38.4"/><path class="cls-50" d="M199.38,426.06m0,37.44V426.06H287.1V463.5H199.38Z" transform="translate(0.36 -21.6)"/><g class="cls-51"><g class="cls-11"><text class="cls-12" transform="translate(219.36 419.52)">L<tspan x="6.11" y="0">.</tspan><tspan x="9.17" y="0">1</tspan><tspan x="15.27" y="0"> </tspan><tspan x="18.34" y="0">Digi</tspan><tspan x="37.25" y="0">t</tspan><tspan x="40.31" y="0">al</tspan></text></g></g><g class="cls-52"><g class="cls-11"><text class="cls-12" transform="translate(204.72 433.2)">Dri<tspan x="14.03" y="0">v</tspan><tspan x="19.53" y="0">er</tspan><tspan x="29.29" y="0">&apos;s </tspan><tspan x="39.96" y="0">Li</tspan><tspan x="48.5" y="0">c</tspan><tspan x="54.01" y="0">en</tspan><tspan x="66.22" y="0">s</tspan><tspan x="71.72" y="0">e</tspan></text></g></g><path class="cls-7" d="M570.36,110.64c0,10.62-16.74,19.2-37.44,19.2s-37.44-8.58-37.44-19.2S512.22,91.5,532.92,91.5s37.44,8.58,37.44,19.14" transform="translate(0.36 -21.6)"/><path class="cls-8" d="M570.36,110.64c0,10.62-16.74,19.2-37.44,19.2s-37.44-8.58-37.44-19.2S512.22,91.5,532.92,91.5,570.36,100.08,570.36,110.64Z" transform="translate(0.36 -21.6)"/><path class="cls-53" d="M567.66,107.94c0,10.62-16.74,19.2-37.44,19.2s-37.44-8.58-37.44-19.2S509.52,88.8,530.22,88.8s37.44,8.58,37.44,19.14" transform="translate(0.36 -21.6)"/><path class="cls-22" d="M567.66,107.94c0,10.62-16.74,19.2-37.44,19.2s-37.44-8.58-37.44-19.2S509.52,88.8,530.22,88.8,567.66,97.38,567.66,107.94Z" transform="translate(0.36 -21.6)"/><g class="cls-54"><g class="cls-11"><text class="cls-12" transform="translate(506.34 89.52)">Educatio<tspan x="42.82" y="0">n</tspan></text></g></g><rect class="cls-14" x="593.16" y="111.42" width="75.84" height="39.3"/><path class="cls-8" d="M593.28,133.5m0,38.34V133.5h74.88v38.34H593.28Z" transform="translate(0.36 -21.6)"/><rect class="cls-21" x="590.46" y="108.72" width="75.84" height="39.3"/><path class="cls-22" d="M590.58,130.8m0,38.34V130.8h74.88v38.34H590.58Z" transform="translate(0.36 -21.6)"/><g class="cls-55"><g class="cls-11"><text class="cls-12" transform="translate(602.34 124.26)">E.4 Online</text></g></g><g class="cls-56"><g class="cls-11"><text class="cls-12" transform="translate(608.76 138)">Classe<tspan x="33.63" y="0">s</tspan></text></g></g><rect class="cls-14" x="224.82" y="108.72" width="94.14" height="42.06"/><path class="cls-8" d="M224.94,130.8m0,41.1V130.8h93.18v41.1H224.94Z" transform="translate(0.36 -21.6)"/><rect class="cls-15" x="222.12" y="106.02" width="94.14" height="42.06"/><path class="cls-16" d="M222.24,128.1m0,41.1V128.1h93.18v41.1H222.24Z" transform="translate(0.36 -21.6)"/><g class="cls-57"><g class="cls-11"><text class="cls-12" transform="translate(234.9 117.9)">F.5 New<tspan x="40.88" y="0"> </tspan><tspan x="43.89" y="0">Bank</tspan></text></g></g><g class="cls-58"><g class="cls-11"><text class="cls-12" transform="translate(236.76 131.58)">Account fro<tspan x="55.66" y="0">m</tspan><tspan x="65.31" y="0"> </tspan></text></g></g><g class="cls-59"><g class="cls-11"><text class="cls-12" transform="translate(254.1 145.32)">Hom<tspan x="23.15" y="0">e</tspan></text></g></g><rect class="cls-14" x="205.62" y="165.36" width="75.84" height="39.3"/><path class="cls-8" d="M205.74,187.44m0,38.34V187.44h74.88v38.34H205.74Z" transform="translate(0.36 -21.6)"/><rect class="cls-15" x="202.92" y="162.66" width="75.84" height="39.3"/><path class="cls-16" d="M203,184.74m0,38.34V184.74h74.88v38.34H203Z" transform="translate(0.36 -21.6)"/><g class="cls-60"><g class="cls-11"><text class="cls-12" transform="translate(206.58 178.2)">F.4 Trying out</text></g></g><g class="cls-61"><g class="cls-11"><text class="cls-12" transform="translate(207.48 191.94)">a<tspan x="6.11" y="0"> </tspan><tspan x="9.17" y="0">new</tspan><tspan class="cls-18" x="29.31" y="0"> s</tspan><tspan x="37.87" y="0">er</tspan><tspan x="47.64" y="0">v</tspan><tspan x="53.14" y="0">i</tspan><tspan x="55.58" y="0">c</tspan><tspan x="61.08" y="0">e</tspan></text></g></g><rect class="cls-14" x="535.56" y="157.14" width="89.58" height="37.5"/><path class="cls-8" d="M535.68,179.22m0,36.54V179.22H624.3v36.54H535.68Z" transform="translate(0.36 -21.6)"/><rect class="cls-21" x="532.86" y="154.44" width="89.58" height="37.5"/><path class="cls-22" d="M533,176.52m0,36.54V176.52H621.6v36.54H533Z" transform="translate(0.36 -21.6)"/><g class="cls-62"><g class="cls-11"><text class="cls-12" transform="translate(538.32 169.08)">E.<tspan x="10.4" y="0">3</tspan><tspan class="cls-18" x="16.5" y="0"> T</tspan><tspan x="26.28" y="0">ran</tspan><tspan x="42.15" y="0">sf</tspan><tspan x="50.71" y="0">erring</tspan></text></g></g><g class="cls-63"><g class="cls-11"><text class="cls-12" transform="translate(557.52 182.82)">School<tspan x="33.64" y="0">s</tspan></text></g></g><rect class="cls-14" x="580.38" y="351.84" width="75.84" height="39.3"/><path class="cls-8" d="M580.5,373.92m0,38.34V373.92h74.88v38.34H580.5Z" transform="translate(0.36 -21.6)"/><rect class="cls-42" x="577.68" y="349.14" width="75.84" height="39.3"/><path class="cls-33" d="M577.8,371.22m0,38.34V371.22h74.88v38.34H577.8Z" transform="translate(0.36 -21.6)"/><g class="cls-64"><g class="cls-11"><text class="cls-12" transform="translate(594.12 364.62)">C.4 New</text></g></g><g class="cls-65"><g class="cls-11"><text class="cls-12" transform="translate(592.26 378.36)">Em<tspan x="16.4" y="0">pl</tspan><tspan x="24.97" y="0">o</tspan><tspan x="31.03" y="0">y</tspan><tspan x="36.49" y="0">e</tspan><tspan x="42.55" y="0">r</tspan></text></g></g><rect class="cls-14" x="621.48" y="300.66" width="75.84" height="39.3"/><path class="cls-8" d="M621.6,322.74m0,38.34V322.74h74.88v38.34H621.6Z" transform="translate(0.36 -21.6)"/><rect class="cls-42" x="618.78" y="297.96" width="75.84" height="39.3"/><path class="cls-33" d="M618.9,320m0,38.34V320h74.88v38.34H618.9Z" transform="translate(0.36 -21.6)"/><g class="cls-66"><g class="cls-11"><text class="cls-12" transform="translate(631.62 313.44)">C<tspan x="7.93" y="0">.</tspan><tspan x="10.99" y="0">5</tspan><tspan class="cls-18" x="17.1" y="0"> S</tspan><tspan x="27.49" y="0">o</tspan><tspan x="33.6" y="0">c</tspan><tspan x="39.1" y="0">ial</tspan></text></g></g><g class="cls-67"><g class="cls-11"><text class="cls-12" transform="translate(635.28 327.18)">Au<tspan x="13.43" y="0">t</tspan><tspan x="16.49" y="0">hori</tspan><tspan x="34.8" y="0">t</tspan><tspan x="37.86" y="0">y</tspan></text></g></g><rect class="cls-14" x="246.72" y="300.66" width="75.84" height="39.3"/><path class="cls-8" d="M246.84,322.74m0,38.34V322.74h74.88v38.34H246.84Z" transform="translate(0.36 -21.6)"/><rect class="cls-68" x="244.02" y="297.96" width="75.84" height="39.3"/><path class="cls-69" d="M244.14,320m0,38.34V320H319v38.34H244.14Z" transform="translate(0.36 -21.6)"/><g class="cls-70"><g class="cls-11"><text class="cls-12" transform="translate(251.34 313.44)">R.1 Address</text></g></g><g class="cls-71"><g class="cls-11"><text class="cls-12" transform="translate(255 327.18)">Verificatio<tspan x="48.33" y="0">n</tspan></text></g></g><rect class="cls-14" x="34.68" y="340.86" width="75.84" height="39.3"/><path class="cls-8" d="M34.8,362.94m0,38.34V362.94h74.88v38.34H34.8Z" transform="translate(0.36 -21.6)"/><rect class="cls-26" x="31.98" y="338.16" width="75.84" height="39.3"/><path class="cls-27" d="M32.1,360.24m0,38.34V360.24H107v38.34H32.1Z" transform="translate(0.36 -21.6)"/><g class="cls-72"><g class="cls-11"><text class="cls-12" transform="translate(43.86 353.7)">H.2 Online</text></g></g><g class="cls-73"><g class="cls-11"><text class="cls-12" transform="translate(44.82 367.44)">Pharmacy</text></g></g><path class="cls-7" d="M154.5,270.6c0,10.14-18.42,18.3-41.1,18.3s-41.1-8.16-41.1-18.3,18.42-18.24,41.1-18.24,41.1,8.16,41.1,18.24" transform="translate(0.36 -21.6)"/><path class="cls-8" d="M154.5,270.6c0,10.14-18.42,18.3-41.1,18.3s-41.1-8.16-41.1-18.3,18.42-18.24,41.1-18.24S154.5,260.52,154.5,270.6Z" transform="translate(0.36 -21.6)"/><path class="cls-74" d="M151.8,267.9c0,10.14-18.42,18.3-41.1,18.3S69.6,278,69.6,267.9,88,249.66,110.7,249.66s41.1,8.16,41.1,18.24" transform="translate(0.36 -21.6)"/><path class="cls-27" d="M151.8,267.9c0,10.14-18.42,18.3-41.1,18.3S69.6,278,69.6,267.9,88,249.66,110.7,249.66,151.8,257.82,151.8,267.9Z" transform="translate(0.36 -21.6)"/><g class="cls-75"><g class="cls-11"><text class="cls-12" transform="translate(84.06 249.48)">Heal<tspan x="22.58" y="0">t</tspan><tspan x="25.64" y="0">h</tspan><tspan x="31.75" y="0">c</tspan><tspan x="37.25" y="0">are</tspan></text></g></g><rect class="cls-14" x="644.34" y="243.96" width="75.84" height="39.3"/><path class="cls-8" d="M644.46,266m0,38.34V266h74.88v38.34H644.46Z" transform="translate(0.36 -21.6)"/><rect class="cls-42" x="641.64" y="241.26" width="75.84" height="39.3"/><path class="cls-33" d="M641.76,263.34m0,38.34V263.34h74.88v38.34H641.76Z" transform="translate(0.36 -21.6)"/><g class="cls-76"><g class="cls-11"><text class="cls-12" transform="translate(660.84 256.8)">C<tspan x="7.93" y="0">.</tspan><tspan x="10.99" y="0">6</tspan><tspan class="cls-18" x="17.1" y="0"> J</tspan><tspan x="25.66" y="0">ob</tspan></text></g></g><g class="cls-77"><g class="cls-11"><text class="cls-12" transform="translate(657.18 270.54)">Applica<tspan x="36.09" y="0">n</tspan><tspan x="42.15" y="0">t</tspan></text></g></g><rect class="cls-14" x="330.84" y="298.8" width="75.84" height="39.3"/><path class="cls-8" d="M331,320.88m0,38.34V320.88h74.88v38.34H331Z" transform="translate(0.36 -21.6)"/><rect class="cls-68" x="328.14" y="296.1" width="75.84" height="39.3"/><path class="cls-69" d="M328.26,318.18m0,38.34V318.18h74.88v38.34H328.26Z" transform="translate(0.36 -21.6)"/><g class="cls-78"><g class="cls-11"><text class="cls-12" transform="translate(343.68 311.64)">R.2 Adult</text></g></g><g class="cls-79"><g class="cls-11"><text class="cls-12" transform="translate(340.02 325.38)">Beverages</text></g></g><rect class="cls-14" x="146.22" y="285.12" width="75.84" height="39.3"/><path class="cls-8" d="M146.34,307.2m0,38.34V307.2h74.88v38.34H146.34Z" transform="translate(0.36 -21.6)"/><rect class="cls-26" x="143.52" y="282.42" width="75.84" height="39.3"/><path class="cls-27" d="M143.64,304.5m0,38.34V304.5h74.88v38.34H143.64Z" transform="translate(0.36 -21.6)"/><g class="cls-80"><g class="cls-11"><text class="cls-12" transform="translate(148.98 297.9)">H.4 Traveling</text></g></g><g class="cls-81"><g class="cls-11"><text class="cls-12" transform="translate(165.42 311.64)">Illnes<tspan x="25.7" y="0">s</tspan></text></g></g><path class="cls-7" d="M370.2,270.6c0,10.62-16.74,19.2-37.44,19.2s-37.44-8.58-37.44-19.2,16.74-19.14,37.44-19.14S370.2,260,370.2,270.6" transform="translate(0.36 -21.6)"/><path class="cls-8" d="M370.2,270.6c0,10.62-16.74,19.2-37.44,19.2s-37.44-8.58-37.44-19.2,16.74-19.14,37.44-19.14S370.2,260,370.2,270.6Z" transform="translate(0.36 -21.6)"/><path class="cls-82" d="M367.5,267.9c0,10.62-16.74,19.2-37.44,19.2s-37.44-8.58-37.44-19.2,16.74-19.14,37.44-19.14,37.44,8.58,37.44,19.14" transform="translate(0.36 -21.6)"/><path class="cls-69" d="M367.5,267.9c0,10.62-16.74,19.2-37.44,19.2s-37.44-8.58-37.44-19.2,16.74-19.14,37.44-19.14S367.5,257.34,367.5,267.9Z" transform="translate(0.36 -21.6)"/><g class="cls-83"><g class="cls-11"><text class="cls-12" transform="translate(316.26 249.48)">Re<tspan x="14.04" y="0">t</tspan><tspan x="17.1" y="0">ail</tspan></text></g></g><rect class="cls-14" x="407.58" y="410.34" width="75.84" height="39.3"/><path class="cls-8" d="M407.7,432.42m0,38.34V432.42h74.88v38.34H407.7Z" transform="translate(0.36 -21.6)"/><rect class="cls-49" x="404.88" y="407.64" width="75.84" height="39.3"/><path class="cls-50" d="M405,429.72m0,38.34V429.72h74.88v38.34H405Z" transform="translate(0.36 -21.6)"/><g class="cls-84"><g class="cls-11"><text class="cls-12" transform="translate(413.1 423.12)">L<tspan x="6.11" y="0">.</tspan><tspan x="9.17" y="0">4</tspan><tspan x="15.27" y="0"> </tspan><tspan x="18.34" y="0">Re</tspan><tspan x="32.37" y="0">f</tspan><tspan x="35.43" y="0">ugee</tspan></text></g></g><g class="cls-85"><g class="cls-11"><text class="cls-12" transform="translate(428.64 436.86)">Crisi<tspan x="22.01" y="0">s</tspan></text></g></g><path class="cls-7" d="M386.64,418.62c0,10.62-16.74,19.2-37.44,19.2s-37.44-8.58-37.44-19.2,16.74-19.14,37.44-19.14,37.44,8.58,37.44,19.14" transform="translate(0.36 -21.6)"/><path class="cls-8" d="M386.64,418.62c0,10.62-16.74,19.2-37.44,19.2s-37.44-8.58-37.44-19.2,16.74-19.14,37.44-19.14S386.64,408.06,386.64,418.62Z" transform="translate(0.36 -21.6)"/><path class="cls-86" d="M383.94,415.92c0,10.62-16.74,19.2-37.44,19.2s-37.44-8.58-37.44-19.2,16.74-19.14,37.44-19.14,37.44,8.58,37.44,19.14" transform="translate(0.36 -21.6)"/><path class="cls-50" d="M383.94,415.92c0,10.62-16.74,19.2-37.44,19.2s-37.44-8.58-37.44-19.2,16.74-19.14,37.44-19.14S383.94,405.36,383.94,415.92Z" transform="translate(0.36 -21.6)"/><g class="cls-87"><g class="cls-11"><text class="cls-12" transform="translate(333.6 391.2)">Lega<tspan x="24.47" y="0">l</tspan></text></g></g><g class="cls-88"><g class="cls-11"><text class="cls-12" transform="translate(329.04 404.88)">Identit<tspan x="29.99" y="0">y</tspan></text></g></g><rect class="cls-14" x="266.88" y="454.2" width="75.84" height="39.3"/><path class="cls-8" d="M267,476.28m0,38.34V476.28h74.88v38.34H267Z" transform="translate(0.36 -21.6)"/><rect class="cls-49" x="264.18" y="451.5" width="75.84" height="39.3"/><path class="cls-50" d="M264.3,473.58m0,38.34V473.58h74.88v38.34H264.3Z" transform="translate(0.36 -21.6)"/><g class="cls-89"><g class="cls-11"><text class="cls-12" transform="translate(268.68 466.98)">L<tspan x="6.11" y="0">.</tspan><tspan x="9.17" y="0">2</tspan><tspan class="cls-18" x="15.27" y="0"> S</tspan><tspan x="25.67" y="0">eamle</tspan><tspan x="55.58" y="0">s</tspan><tspan x="61.08" y="0">s</tspan></text></g></g><g class="cls-90"><g class="cls-11"><text class="cls-12" transform="translate(273.3 480.72)">Immigration</text></g></g><rect class="cls-14" x="350.94" y="456.96" width="75.84" height="39.3"/><path class="cls-8" d="M351.06,479m0,38.34V479h74.88v38.34H351.06Z" transform="translate(0.36 -21.6)"/><rect class="cls-49" x="348.24" y="454.26" width="75.84" height="39.3"/><path class="cls-50" d="M348.36,476.34m0,38.34V476.34h74.88v38.34H348.36Z" transform="translate(0.36 -21.6)"/><g class="cls-91"><g class="cls-11"><text class="cls-12" transform="translate(358.32 469.74)">L<tspan x="6.11" y="0">.</tspan><tspan x="9.17" y="0">3</tspan><tspan class="cls-18" x="15.27" y="0"> S</tspan><tspan x="25.67" y="0">peedy</tspan></text></g></g><g class="cls-92"><g class="cls-11"><text class="cls-12" transform="translate(362.88 483.48)">Air<tspan x="13.42" y="0"> </tspan><tspan x="16.31" y="0">T</tspan><tspan x="22.62" y="0">ravel</tspan></text></g></g><rect class="cls-14" x="119.7" y="339.96" width="75.84" height="39.3"/><path class="cls-8" d="M119.82,362m0,38.34V362H194.7v38.34H119.82Z" transform="translate(0.36 -21.6)"/><rect class="cls-26" x="117" y="337.26" width="75.84" height="39.3"/><path class="cls-27" d="M117.12,359.34m0,38.34V359.34H192v38.34H117.12Z" transform="translate(0.36 -21.6)"/><g class="cls-93"><g class="cls-11"><text class="cls-12" transform="translate(120.66 352.74)">H<tspan x="7.93" y="0">.</tspan><tspan x="10.99" y="0">3</tspan><tspan class="cls-18" x="17.1" y="0"> I</tspan><tspan x="23.22" y="0">n</tspan><tspan x="29.33" y="0">s</tspan><tspan x="34.83" y="0">u</tspan><tspan x="40.93" y="0">r</tspan><tspan x="44.6" y="0">an</tspan><tspan x="56.82" y="0">c</tspan><tspan x="62.32" y="0">e</tspan></text></g></g><g class="cls-94"><g class="cls-11"><text class="cls-12" transform="translate(140.76 366.48)">Claim</text></g></g></svg>