<?xml version="1.0" encoding="UTF-8" standalone="yes"?><svg xmlns="http://www.w3.org/2000/svg" xmlns:xlink="http://www.w3.org/1999/xlink" height="491px" style="width:730px;height:491px;" version="1.1" viewBox="0 0 730 491" width="730px"><defs/><g><text fill="#000000" font-family="Lucida Sans" font-size="14" font-weight="bold" lengthAdjust="spacingAndGlyphs" textLength="214" x="264.25" y="23.3369">Example age verification flow</text><line style="stroke: #A80036; stroke-width: 1.0; stroke-dasharray: 5.0,5.0;" x1="25" x2="25" y1="112.5801" y2="414.8447"/><line style="stroke: #A80036; stroke-width: 1.0; stroke-dasharray: 5.0,5.0;" x1="243.5" x2="243.5" y1="112.5801" y2="414.8447"/><line style="stroke: #A80036; stroke-width: 1.0; stroke-dasharray: 5.0,5.0;" x1="393.5" x2="393.5" y1="112.5801" y2="414.8447"/><line style="stroke: #A80036; stroke-width: 1.0; stroke-dasharray: 5.0,5.0;" x1="561.5" x2="561.5" y1="112.5801" y2="414.8447"/><text fill="#000000" font-family="Lucida Sans" font-size="14" lengthAdjust="spacingAndGlyphs" textLength="29" x="8" y="109.5928">Jane</text><ellipse cx="25.5" cy="43.29" fill="#FEFECE" rx="8" ry="8" style="stroke: #A80036; stroke-width: 2.0;"/><path d="M25.5,51.29 L25.5,78.29 M12.5,59.29 L38.5,59.29 M25.5,78.29 L12.5,93.29 M25.5,78.29 L38.5,93.29 " fill="#FEFECE" style="stroke: #A80036; stroke-width: 2.0;"/><text fill="#000000" font-family="Lucida Sans" font-size="14" lengthAdjust="spacingAndGlyphs" textLength="29" x="8" y="427.1475">Jane</text><ellipse cx="25.5" cy="440.1348" fill="#FEFECE" rx="8" ry="8" style="stroke: #A80036; stroke-width: 2.0;"/><path d="M25.5,448.1348 L25.5,475.1348 M12.5,456.1348 L38.5,456.1348 M25.5,475.1348 L12.5,490.1348 M25.5,475.1348 L38.5,490.1348 " fill="#FEFECE" style="stroke: #A80036; stroke-width: 2.0;"/><rect fill="#FEFECE" height="30.29" style="stroke: #A80036; stroke-width: 1.5;" width="142" x="172.5" y="81.29"/><text fill="#000000" font-family="Lucida Sans" font-size="14" lengthAdjust="spacingAndGlyphs" textLength="128" x="179.5" y="101.5928">Credential Curator</text><rect fill="#FEFECE" height="30.29" style="stroke: #A80036; stroke-width: 1.5;" width="142" x="172.5" y="413.8447"/><text fill="#000000" font-family="Lucida Sans" font-size="14" lengthAdjust="spacingAndGlyphs" textLength="128" x="179.5" y="434.1475">Credential Curator</text><rect fill="#FEFECE" height="30.29" style="stroke: #A80036; stroke-width: 1.5;" width="90" x="348.5" y="81.29"/><text fill="#000000" font-family="Lucida Sans" font-size="14" lengthAdjust="spacingAndGlyphs" textLength="76" x="355.5" y="101.5928">User Agent</text><rect fill="#FEFECE" height="30.29" style="stroke: #A80036; stroke-width: 1.5;" width="90" x="348.5" y="413.8447"/><text fill="#000000" font-family="Lucida Sans" font-size="14" lengthAdjust="spacingAndGlyphs" textLength="76" x="355.5" y="434.1475">User Agent</text><rect fill="#FEFECE" height="30.29" style="stroke: #A80036; stroke-width: 1.5;" width="148" x="487.5" y="81.29"/><text fill="#000000" font-family="Lucida Sans" font-size="14" lengthAdjust="spacingAndGlyphs" textLength="134" x="494.5" y="101.5928">Wines Of The World</text><rect fill="#FEFECE" height="30.29" style="stroke: #A80036; stroke-width: 1.5;" width="148" x="487.5" y="413.8447"/><text fill="#000000" font-family="Lucida Sans" font-size="14" lengthAdjust="spacingAndGlyphs" textLength="134" x="494.5" y="434.1475">Wines Of The World</text><polygon fill="#A80036" points="549.5,157.7065,559.5,161.7065,549.5,165.7065,553.5,161.7065" style="stroke: #A80036; stroke-width: 1.0;"/><line style="stroke: #A80036; stroke-width: 1.0;" x1="25.5" x2="555.5" y1="161.7065" y2="161.7065"/><text fill="#000000" font-family="Lucida Sans" font-size="13" font-weight="bold" lengthAdjust="spacingAndGlyphs" textLength="9" x="32.5" y="157.0908">1</text><text fill="#000000" font-family="Lucida Sans" font-size="13" lengthAdjust="spacingAndGlyphs" textLength="128" x="45.5" y="157.0591">Navigate to web site</text><polygon fill="#FBFB77" points="566,127.5801,566,182.5801,729,182.5801,729,137.5801,719,127.5801,566,127.5801" style="stroke: #A80036; stroke-width: 1.0;"/><line style="stroke: #A80036; stroke-width: 1.0;" x1="719" x2="719" y1="127.5801" y2="137.5801"/><line style="stroke: #A80036; stroke-width: 1.0;" x1="729" x2="719" y1="137.5801" y2="137.5801"/><text fill="#000000" font-family="Lucida Sans" font-size="13" lengthAdjust="spacingAndGlyphs" textLength="142" x="572" y="144.9326">Merchant requires that</text><text fill="#000000" font-family="Lucida Sans" font-size="13" lengthAdjust="spacingAndGlyphs" textLength="125" x="572" y="160.0591">web site users be at</text><text fill="#000000" font-family="Lucida Sans" font-size="13" lengthAdjust="spacingAndGlyphs" textLength="130" x="572" y="175.1855">least 21 years of age</text><polygon fill="#A80036" points="404.5,204.9595,394.5,208.9595,404.5,212.9595,400.5,208.9595" style="stroke: #A80036; stroke-width: 1.0;"/><line style="stroke: #A80036; stroke-width: 1.0;" x1="398.5" x2="560.5" y1="208.9595" y2="208.9595"/><text fill="#000000" font-family="Lucida Sans" font-size="13" font-weight="bold" lengthAdjust="spacingAndGlyphs" textLength="9" x="410.5" y="204.3438">2</text><text fill="#000000" font-family="Lucida Sans" font-size="13" lengthAdjust="spacingAndGlyphs" textLength="131" x="423.5" y="204.312">Request proof of age</text><polygon fill="#A80036" points="254.5,234.0859,244.5,238.0859,254.5,242.0859,250.5,238.0859" style="stroke: #A80036; stroke-width: 1.0;"/><line style="stroke: #A80036; stroke-width: 1.0;" x1="248.5" x2="392.5" y1="238.0859" y2="238.0859"/><text fill="#000000" font-family="Lucida Sans" font-size="13" font-weight="bold" lengthAdjust="spacingAndGlyphs" textLength="9" x="260.5" y="233.4702">3</text><text fill="#000000" font-family="Lucida Sans" font-size="13" lengthAdjust="spacingAndGlyphs" textLength="113" x="273.5" y="233.4385">Need proof of age</text><polygon fill="#A80036" points="36.5,263.2124,26.5,267.2124,36.5,271.2124,32.5,267.2124" style="stroke: #A80036; stroke-width: 1.0;"/><line style="stroke: #A80036; stroke-width: 1.0;" x1="30.5" x2="242.5" y1="267.2124" y2="267.2124"/><text fill="#000000" font-family="Lucida Sans" font-size="13" font-weight="bold" lengthAdjust="spacingAndGlyphs" textLength="9" x="42.5" y="262.5967">4</text><text fill="#000000" font-family="Lucida Sans" font-size="13" lengthAdjust="spacingAndGlyphs" textLength="181" x="55.5" y="262.5649">Displays relevant credentials</text><polygon fill="#A80036" points="231.5,292.3389,241.5,296.3389,231.5,300.3389,235.5,296.3389" style="stroke: #A80036; stroke-width: 1.0;"/><line style="stroke: #A80036; stroke-width: 1.0;" x1="25.5" x2="237.5" y1="296.3389" y2="296.3389"/><text fill="#000000" font-family="Lucida Sans" font-size="13" font-weight="bold" lengthAdjust="spacingAndGlyphs" textLength="9" x="32.5" y="291.7231">5</text><text fill="#000000" font-family="Lucida Sans" font-size="13" lengthAdjust="spacingAndGlyphs" textLength="121" x="45.5" y="291.6914">Selects a credential</text><polygon fill="#A80036" points="549.5,321.4653,559.5,325.4653,549.5,329.4653,553.5,325.4653" style="stroke: #A80036; stroke-width: 1.0;"/><line style="stroke: #A80036; stroke-width: 1.0;" x1="243.5" x2="555.5" y1="325.4653" y2="325.4653"/><text fill="#000000" font-family="Lucida Sans" font-size="13" font-weight="bold" lengthAdjust="spacingAndGlyphs" textLength="9" x="250.5" y="320.8496">6</text><text fill="#000000" font-family="Lucida Sans" font-size="13" lengthAdjust="spacingAndGlyphs" textLength="216" x="263.5" y="320.8179">Use this credential as proof of age</text><line style="stroke: #A80036; stroke-width: 1.0;" x1="561.5" x2="603.5" y1="354.7183" y2="354.7183"/><line style="stroke: #A80036; stroke-width: 1.0;" x1="603.5" x2="603.5" y1="354.7183" y2="367.7183"/><line style="stroke: #A80036; stroke-width: 1.0;" x1="562.5" x2="603.5" y1="367.7183" y2="367.7183"/><polygon fill="#A80036" points="572.5,363.7183,562.5,367.7183,572.5,371.7183,568.5,367.7183" style="stroke: #A80036; stroke-width: 1.0;"/><text fill="#000000" font-family="Lucida Sans" font-size="13" font-weight="bold" lengthAdjust="spacingAndGlyphs" textLength="9" x="568.5" y="349.9761">7</text><text fill="#000000" font-family="Lucida Sans" font-size="13" lengthAdjust="spacingAndGlyphs" textLength="37" x="581.5" y="349.9443">Verify</text><polygon fill="#A80036" points="404.5,392.7183,394.5,396.7183,404.5,400.7183,400.5,396.7183" style="stroke: #A80036; stroke-width: 1.0;"/><line style="stroke: #A80036; stroke-width: 1.0;" x1="398.5" x2="560.5" y1="396.7183" y2="396.7183"/><text fill="#000000" font-family="Lucida Sans" font-size="13" font-weight="bold" lengthAdjust="spacingAndGlyphs" textLength="9" x="410.5" y="392.1025">8</text><text fill="#000000" font-family="Lucida Sans" font-size="13" lengthAdjust="spacingAndGlyphs" textLength="124" x="423.5" y="392.0708">Redirect to web site</text></g></svg>