<?xml version="1.0" encoding="UTF-8" standalone="yes"?><svg xmlns="http://www.w3.org/2000/svg" xmlns:xlink="http://www.w3.org/1999/xlink" height="556px" style="width:642px;height:556px;" version="1.1" viewBox="0 0 642 556" width="642px"><defs/><g><text fill="#000000" font-family="Lucida Sans" font-size="14" font-weight="bold" lengthAdjust="spacingAndGlyphs" textLength="236" x="207.5" y="23.3369">Example credential creation flow</text><line style="stroke: #A80036; stroke-width: 1.0; stroke-dasharray: 5.0,5.0;" x1="25" x2="25" y1="112.5801" y2="480.0977"/><line style="stroke: #A80036; stroke-width: 1.0; stroke-dasharray: 5.0,5.0;" x1="194.5" x2="194.5" y1="112.5801" y2="480.0977"/><line style="stroke: #A80036; stroke-width: 1.0; stroke-dasharray: 5.0,5.0;" x1="344.5" x2="344.5" y1="112.5801" y2="480.0977"/><line style="stroke: #A80036; stroke-width: 1.0; stroke-dasharray: 5.0,5.0;" x1="499.5" x2="499.5" y1="112.5801" y2="480.0977"/><text fill="#000000" font-family="Lucida Sans" font-size="14" lengthAdjust="spacingAndGlyphs" textLength="29" x="8" y="109.5928">Jane</text><ellipse cx="25.5" cy="43.29" fill="#FEFECE" rx="8" ry="8" style="stroke: #A80036; stroke-width: 2.0;"/><path d="M25.5,51.29 L25.5,78.29 M12.5,59.29 L38.5,59.29 M25.5,78.29 L12.5,93.29 M25.5,78.29 L38.5,93.29 " fill="#FEFECE" style="stroke: #A80036; stroke-width: 2.0;"/><text fill="#000000" font-family="Lucida Sans" font-size="14" lengthAdjust="spacingAndGlyphs" textLength="29" x="8" y="492.4004">Jane</text><ellipse cx="25.5" cy="505.3877" fill="#FEFECE" rx="8" ry="8" style="stroke: #A80036; stroke-width: 2.0;"/><path d="M25.5,513.3877 L25.5,540.3877 M12.5,521.3877 L38.5,521.3877 M25.5,540.3877 L12.5,555.3877 M25.5,540.3877 L38.5,555.3877 " fill="#FEFECE" style="stroke: #A80036; stroke-width: 2.0;"/><rect fill="#FEFECE" height="30.29" style="stroke: #A80036; stroke-width: 1.5;" width="90" x="149.5" y="81.29"/><text fill="#000000" font-family="Lucida Sans" font-size="14" lengthAdjust="spacingAndGlyphs" textLength="76" x="156.5" y="101.5928">User Agent</text><rect fill="#FEFECE" height="30.29" style="stroke: #A80036; stroke-width: 1.5;" width="90" x="149.5" y="479.0977"/><text fill="#000000" font-family="Lucida Sans" font-size="14" lengthAdjust="spacingAndGlyphs" textLength="76" x="156.5" y="499.4004">User Agent</text><rect fill="#FEFECE" height="30.29" style="stroke: #A80036; stroke-width: 1.5;" width="142" x="273.5" y="81.29"/><text fill="#000000" font-family="Lucida Sans" font-size="14" lengthAdjust="spacingAndGlyphs" textLength="128" x="280.5" y="101.5928">Credential Curator</text><rect fill="#FEFECE" height="30.29" style="stroke: #A80036; stroke-width: 1.5;" width="142" x="273.5" y="479.0977"/><text fill="#000000" font-family="Lucida Sans" font-size="14" lengthAdjust="spacingAndGlyphs" textLength="128" x="280.5" y="499.4004">Credential Curator</text><rect fill="#FEFECE" height="30.29" style="stroke: #A80036; stroke-width: 1.5;" width="149" x="425.5" y="81.29"/><text fill="#000000" font-family="Lucida Sans" font-size="14" lengthAdjust="spacingAndGlyphs" textLength="135" x="432.5" y="101.5928">Certifying Authority</text><rect fill="#FEFECE" height="30.29" style="stroke: #A80036; stroke-width: 1.5;" width="149" x="425.5" y="479.0977"/><text fill="#000000" font-family="Lucida Sans" font-size="14" lengthAdjust="spacingAndGlyphs" textLength="135" x="432.5" y="499.4004">Certifying Authority</text><polygon fill="#A80036" points="182.5,154.5801,192.5,158.5801,182.5,162.5801,186.5,158.5801" style="stroke: #A80036; stroke-width: 1.0;"/><line style="stroke: #A80036; stroke-width: 1.0;" x1="25.5" x2="188.5" y1="158.5801" y2="158.5801"/><text fill="#000000" font-family="Lucida Sans" font-size="13" font-weight="bold" lengthAdjust="spacingAndGlyphs" textLength="9" x="32.5" y="146.5276">1</text><text fill="#000000" font-family="Lucida Sans" font-size="13" lengthAdjust="spacingAndGlyphs" textLength="72" x="45.5" y="138.9326">Navigate to</text><text fill="#000000" font-family="Lucida Sans" font-size="13" lengthAdjust="spacingAndGlyphs" textLength="52" x="45.5" y="154.0591">web site</text><polygon fill="#A80036" points="488,183.833,498,187.833,488,191.833,492,187.833" style="stroke: #A80036; stroke-width: 1.0;"/><line style="stroke: #A80036; stroke-width: 1.0;" x1="194.5" x2="494" y1="187.833" y2="187.833"/><text fill="#000000" font-family="Lucida Sans" font-size="13" font-weight="bold" lengthAdjust="spacingAndGlyphs" textLength="9" x="201.5" y="183.2173">2</text><text fill="#000000" font-family="Lucida Sans" font-size="13" lengthAdjust="spacingAndGlyphs" textLength="118" x="214.5" y="183.1855">Request Credential</text><line style="stroke: #A80036; stroke-width: 1.0;" x1="500" x2="542" y1="232.2124" y2="232.2124"/><line style="stroke: #A80036; stroke-width: 1.0;" x1="542" x2="542" y1="232.2124" y2="245.2124"/><line style="stroke: #A80036; stroke-width: 1.0;" x1="501" x2="542" y1="245.2124" y2="245.2124"/><polygon fill="#A80036" points="511,241.2124,501,245.2124,511,249.2124,507,245.2124" style="stroke: #A80036; stroke-width: 1.0;"/><text fill="#000000" font-family="Lucida Sans" font-size="13" font-weight="bold" lengthAdjust="spacingAndGlyphs" textLength="9" x="507" y="219.907">3</text><text fill="#000000" font-family="Lucida Sans" font-size="13" lengthAdjust="spacingAndGlyphs" textLength="37" x="520" y="212.312">Verify</text><text fill="#000000" font-family="Lucida Sans" font-size="13" lengthAdjust="spacingAndGlyphs" textLength="48" x="520" y="227.4385">identity</text><line style="stroke: #A80036; stroke-width: 1.0;" x1="500" x2="542" y1="274.3389" y2="274.3389"/><line style="stroke: #A80036; stroke-width: 1.0;" x1="542" x2="542" y1="274.3389" y2="287.3389"/><line style="stroke: #A80036; stroke-width: 1.0;" x1="501" x2="542" y1="287.3389" y2="287.3389"/><polygon fill="#A80036" points="511,283.3389,501,287.3389,511,291.3389,507,287.3389" style="stroke: #A80036; stroke-width: 1.0;"/><text fill="#000000" font-family="Lucida Sans" font-size="13" font-weight="bold" lengthAdjust="spacingAndGlyphs" textLength="9" x="507" y="269.5967">4</text><text fill="#000000" font-family="Lucida Sans" font-size="13" lengthAdjust="spacingAndGlyphs" textLength="121" x="520" y="269.5649">Generate credential</text><polygon fill="#A80036" points="205.5,312.3389,195.5,316.3389,205.5,320.3389,201.5,316.3389" style="stroke: #A80036; stroke-width: 1.0;"/><line style="stroke: #A80036; stroke-width: 1.0;" x1="199.5" x2="499" y1="316.3389" y2="316.3389"/><text fill="#000000" font-family="Lucida Sans" font-size="13" font-weight="bold" lengthAdjust="spacingAndGlyphs" textLength="9" x="211.5" y="311.7231">5</text><text fill="#000000" font-family="Lucida Sans" font-size="13" lengthAdjust="spacingAndGlyphs" textLength="99" x="224.5" y="311.6914">Issue credential</text><polygon fill="#A80036" points="36.5,341.4653,26.5,345.4653,36.5,349.4653,32.5,345.4653" style="stroke: #A80036; stroke-width: 1.0;"/><line style="stroke: #A80036; stroke-width: 1.0;" x1="30.5" x2="193.5" y1="345.4653" y2="345.4653"/><text fill="#000000" font-family="Lucida Sans" font-size="13" font-weight="bold" lengthAdjust="spacingAndGlyphs" textLength="9" x="42.5" y="340.8496">6</text><text fill="#000000" font-family="Lucida Sans" font-size="13" lengthAdjust="spacingAndGlyphs" textLength="113" x="55.5" y="340.8179">Display credential</text><polygon fill="#A80036" points="182.5,370.5918,192.5,374.5918,182.5,378.5918,186.5,374.5918" style="stroke: #A80036; stroke-width: 1.0;"/><line style="stroke: #A80036; stroke-width: 1.0;" x1="25.5" x2="188.5" y1="374.5918" y2="374.5918"/><text fill="#000000" font-family="Lucida Sans" font-size="13" font-weight="bold" lengthAdjust="spacingAndGlyphs" textLength="9" x="32.5" y="369.9761">7</text><text fill="#000000" font-family="Lucida Sans" font-size="13" lengthAdjust="spacingAndGlyphs" textLength="94" x="45.5" y="369.9443">Save credential</text><polygon fill="#A80036" points="332.5,399.7183,342.5,403.7183,332.5,407.7183,336.5,403.7183" style="stroke: #A80036; stroke-width: 1.0;"/><line style="stroke: #A80036; stroke-width: 1.0;" x1="194.5" x2="338.5" y1="403.7183" y2="403.7183"/><text fill="#000000" font-family="Lucida Sans" font-size="13" font-weight="bold" lengthAdjust="spacingAndGlyphs" textLength="9" x="201.5" y="399.1025">8</text><text fill="#000000" font-family="Lucida Sans" font-size="13" lengthAdjust="spacingAndGlyphs" textLength="98" x="214.5" y="399.0708">Store credential</text><polygon fill="#A80036" points="205.5,428.8447,195.5,432.8447,205.5,436.8447,201.5,432.8447" style="stroke: #A80036; stroke-width: 1.0;"/><line style="stroke: #A80036; stroke-width: 1.0;" x1="199.5" x2="343.5" y1="432.8447" y2="432.8447"/><text fill="#000000" font-family="Lucida Sans" font-size="13" font-weight="bold" lengthAdjust="spacingAndGlyphs" textLength="9" x="211.5" y="428.229">9</text><text fill="#000000" font-family="Lucida Sans" font-size="13" lengthAdjust="spacingAndGlyphs" textLength="113" x="224.5" y="428.1973">List of credentials</text><polygon fill="#A80036" points="36.5,457.9712,26.5,461.9712,36.5,465.9712,32.5,461.9712" style="stroke: #A80036; stroke-width: 1.0;"/><line style="stroke: #A80036; stroke-width: 1.0;" x1="30.5" x2="193.5" y1="461.9712" y2="461.9712"/><text fill="#000000" font-family="Lucida Sans" font-size="13" font-weight="bold" lengthAdjust="spacingAndGlyphs" textLength="18" x="42.5" y="457.3555">10</text><text fill="#000000" font-family="Lucida Sans" font-size="13" lengthAdjust="spacingAndGlyphs" textLength="123" x="64.5" y="457.3237">Show credential list</text></g></svg>